<mxfile host="app.diagrams.net" agent="Mozilla/5.0 (X11; Ubuntu; Linux x86_64; rv:134.0) Gecko/20100101 Firefox/134.0" version="26.0.11">
  <diagram name="Page-1" id="wqKDKN6HVrpM5RB-ZInh">
    <mxGraphModel dx="1364" dy="795" grid="1" gridSize="10" guides="1" tooltips="1" connect="1" arrows="1" fold="1" page="1" pageScale="1" pageWidth="850" pageHeight="1100" math="0" shadow="0">
      <root>
        <mxCell id="0" />
        <mxCell id="1" parent="0" />
        <mxCell id="HRlRN61YoeCi5YHDuwaX-3" value="" style="edgeStyle=orthogonalEdgeStyle;rounded=0;orthogonalLoop=1;jettySize=auto;html=1;" edge="1" parent="1" source="HRlRN61YoeCi5YHDuwaX-1" target="HRlRN61YoeCi5YHDuwaX-2">
          <mxGeometry relative="1" as="geometry" />
        </mxCell>
        <mxCell id="HRlRN61YoeCi5YHDuwaX-1" value="Script" style="rounded=0;whiteSpace=wrap;html=1;" vertex="1" parent="1">
          <mxGeometry x="310" y="100" width="120" height="60" as="geometry" />
        </mxCell>
        <mxCell id="HRlRN61YoeCi5YHDuwaX-5" value="" style="edgeStyle=orthogonalEdgeStyle;rounded=0;orthogonalLoop=1;jettySize=auto;html=1;" edge="1" parent="1" source="HRlRN61YoeCi5YHDuwaX-2" target="HRlRN61YoeCi5YHDuwaX-4">
          <mxGeometry relative="1" as="geometry" />
        </mxCell>
        <mxCell id="HRlRN61YoeCi5YHDuwaX-2" value="&lt;div&gt;Scene Parser &lt;br&gt;&lt;/div&gt;&lt;div&gt;LLM&lt;br&gt;&lt;/div&gt;" style="rounded=0;whiteSpace=wrap;html=1;" vertex="1" parent="1">
          <mxGeometry x="310" y="200" width="120" height="60" as="geometry" />
        </mxCell>
        <mxCell id="HRlRN61YoeCi5YHDuwaX-9" value="" style="edgeStyle=orthogonalEdgeStyle;rounded=0;orthogonalLoop=1;jettySize=auto;html=1;" edge="1" parent="1" source="HRlRN61YoeCi5YHDuwaX-4" target="HRlRN61YoeCi5YHDuwaX-8">
          <mxGeometry relative="1" as="geometry" />
        </mxCell>
        <mxCell id="HRlRN61YoeCi5YHDuwaX-4" value="&lt;div&gt;UX&lt;/div&gt;&lt;div&gt;Scene Editor&lt;br&gt;&lt;/div&gt;" style="rounded=0;whiteSpace=wrap;html=1;" vertex="1" parent="1">
          <mxGeometry x="310" y="300" width="120" height="60" as="geometry" />
        </mxCell>
        <mxCell id="HRlRN61YoeCi5YHDuwaX-6" value="&lt;div&gt;Text to Sound&lt;/div&gt;&lt;div&gt;Server&lt;br&gt;&lt;/div&gt;" style="rounded=0;whiteSpace=wrap;html=1;" vertex="1" parent="1">
          <mxGeometry x="200" y="520" width="120" height="60" as="geometry" />
        </mxCell>
        <mxCell id="HRlRN61YoeCi5YHDuwaX-7" value="&lt;div&gt;Text to Speech&lt;/div&gt;&lt;div&gt;Server&lt;br&gt;&lt;/div&gt;" style="rounded=0;whiteSpace=wrap;html=1;" vertex="1" parent="1">
          <mxGeometry x="60" y="520" width="120" height="60" as="geometry" />
        </mxCell>
        <mxCell id="HRlRN61YoeCi5YHDuwaX-10" style="edgeStyle=orthogonalEdgeStyle;rounded=0;orthogonalLoop=1;jettySize=auto;html=1;" edge="1" parent="1" source="HRlRN61YoeCi5YHDuwaX-8" target="HRlRN61YoeCi5YHDuwaX-7">
          <mxGeometry relative="1" as="geometry" />
        </mxCell>
        <mxCell id="HRlRN61YoeCi5YHDuwaX-11" value="" style="edgeStyle=orthogonalEdgeStyle;rounded=0;orthogonalLoop=1;jettySize=auto;html=1;" edge="1" parent="1" source="HRlRN61YoeCi5YHDuwaX-8" target="HRlRN61YoeCi5YHDuwaX-7">
          <mxGeometry relative="1" as="geometry" />
        </mxCell>
        <mxCell id="HRlRN61YoeCi5YHDuwaX-8" value="Multimedia Server" style="rounded=0;whiteSpace=wrap;html=1;" vertex="1" parent="1">
          <mxGeometry x="310" y="390" width="120" height="60" as="geometry" />
        </mxCell>
        <mxCell id="HRlRN61YoeCi5YHDuwaX-12" style="edgeStyle=orthogonalEdgeStyle;rounded=0;orthogonalLoop=1;jettySize=auto;html=1;entryX=0.383;entryY=-0.067;entryDx=0;entryDy=0;entryPerimeter=0;" edge="1" parent="1" source="HRlRN61YoeCi5YHDuwaX-8" target="HRlRN61YoeCi5YHDuwaX-6">
          <mxGeometry relative="1" as="geometry" />
        </mxCell>
        <mxCell id="HRlRN61YoeCi5YHDuwaX-27" value="PostgreSQL" style="shape=cylinder3;whiteSpace=wrap;html=1;boundedLbl=1;backgroundOutline=1;size=15;" vertex="1" parent="1">
          <mxGeometry x="511" y="300" width="90" height="80" as="geometry" />
        </mxCell>
        <mxCell id="HRlRN61YoeCi5YHDuwaX-28" value="&lt;div&gt;Neo4j/&lt;/div&gt;&lt;div&gt;MongoDB&lt;br&gt;&lt;/div&gt;" style="shape=cylinder3;whiteSpace=wrap;html=1;boundedLbl=1;backgroundOutline=1;size=15;" vertex="1" parent="1">
          <mxGeometry x="365" y="600" width="60" height="80" as="geometry" />
        </mxCell>
        <mxCell id="HRlRN61YoeCi5YHDuwaX-32" value="" style="endArrow=classic;startArrow=classic;html=1;rounded=0;entryX=0.75;entryY=1;entryDx=0;entryDy=0;" edge="1" parent="1" target="HRlRN61YoeCi5YHDuwaX-8">
          <mxGeometry width="50" height="50" relative="1" as="geometry">
            <mxPoint x="400" y="600" as="sourcePoint" />
            <mxPoint x="425" y="480" as="targetPoint" />
          </mxGeometry>
        </mxCell>
        <mxCell id="HRlRN61YoeCi5YHDuwaX-36" value="" style="endArrow=none;html=1;rounded=0;" edge="1" parent="1">
          <mxGeometry width="50" height="50" relative="1" as="geometry">
            <mxPoint x="120" y="660" as="sourcePoint" />
            <mxPoint x="120" y="580" as="targetPoint" />
          </mxGeometry>
        </mxCell>
        <mxCell id="HRlRN61YoeCi5YHDuwaX-37" value="" style="endArrow=classic;html=1;rounded=0;" edge="1" parent="1">
          <mxGeometry width="50" height="50" relative="1" as="geometry">
            <mxPoint x="120" y="660" as="sourcePoint" />
            <mxPoint x="365" y="660" as="targetPoint" />
          </mxGeometry>
        </mxCell>
        <mxCell id="HRlRN61YoeCi5YHDuwaX-39" value="" style="endArrow=classic;html=1;rounded=0;" edge="1" parent="1">
          <mxGeometry width="50" height="50" relative="1" as="geometry">
            <mxPoint x="260" y="630" as="sourcePoint" />
            <mxPoint x="365" y="630" as="targetPoint" />
          </mxGeometry>
        </mxCell>
        <mxCell id="HRlRN61YoeCi5YHDuwaX-40" value="" style="endArrow=none;html=1;rounded=0;" edge="1" parent="1">
          <mxGeometry width="50" height="50" relative="1" as="geometry">
            <mxPoint x="260" y="630" as="sourcePoint" />
            <mxPoint x="260" y="580" as="targetPoint" />
          </mxGeometry>
        </mxCell>
        <mxCell id="HRlRN61YoeCi5YHDuwaX-41" value="" style="endArrow=classic;startArrow=classic;html=1;rounded=0;entryX=0;entryY=0.5;entryDx=0;entryDy=0;entryPerimeter=0;" edge="1" parent="1">
          <mxGeometry width="50" height="50" relative="1" as="geometry">
            <mxPoint x="431" y="340" as="sourcePoint" />
            <mxPoint x="511" y="340" as="targetPoint" />
            <Array as="points">
              <mxPoint x="441" y="340" />
              <mxPoint x="451" y="340" />
            </Array>
          </mxGeometry>
        </mxCell>
      </root>
    </mxGraphModel>
  </diagram>
</mxfile>
